<svg width="896" height="194" viewBox="0 0 896 194" fill="none" xmlns="http://www.w3.org/2000/svg">
<path d="M796.719 193.98C786.027 185.879 779.374 177.778 774.384 166.104C770.583 155.858 767.969 144.898 769.395 133.461C770.82 119.404 773.672 107.014 776.285 93.4329C776.998 92.7181 776.523 91.5268 776.998 90.5738C778.661 82.711 780.8 74.8483 782.7 66.9856C783.413 66.7473 784.364 66.9856 785.076 66.9856L784.126 67.2239C790.779 67.7004 797.907 67.9386 804.559 68.4152C805.035 68.8917 805.747 68.8917 806.223 68.6534C806.698 68.6534 807.411 68.8917 807.886 68.8917C808.361 67.2239 809.074 65.7943 809.787 64.8412C807.411 60.0759 806.698 59.5994 803.609 55.0724C803.609 55.0724 797.907 46.2566 796.481 45.3035C795.056 44.3505 793.868 43.874 792.204 43.1592C790.304 42.2061 788.403 42.4444 785.552 41.4913C782.225 31.0077 776.998 18.3797 773.909 5.5134L778.186 9.80216L792.442 23.6215L800.758 30.5312C800.996 32.199 800.996 34.5816 801.708 36.4878C802.184 38.8704 803.847 40.3 805.035 42.4444C809.787 49.1158 812.163 51.4984 816.439 58.4081C816.439 58.4081 819.291 57.455 820.954 55.7872C818.578 54.5958 819.291 46.7331 819.291 46.7331C818.815 42.6826 815.251 39.1087 817.152 34.8199C817.39 34.5816 818.103 32.6755 818.34 32.199C818.103 30.0546 815.014 28.625 817.152 26.2424C817.39 26.0041 816.439 24.5745 816.439 24.098C816.202 19.571 817.627 15.044 818.103 10.5169C819.291 8.61083 820.479 7.41951 822.379 6.46646C827.131 4.56034 833.071 4.32208 838.061 2.65423C838.536 2.89249 838.536 2.41596 839.011 2.41596C841.625 2.41596 843.763 0.271583 846.377 1.22464C850.179 4.79861 853.743 8.61083 857.544 12.4231C860.158 14.3292 861.583 16.9501 863.722 19.3327C864.197 20.524 865.623 22.6684 864.91 24.098L863.247 26.0041L862.534 35.0582C862.059 35.773 862.296 36.9643 861.583 37.6791V38.1556V38.1556C861.346 40.3 861.108 42.4444 860.395 44.5887C860.158 46.9714 859.683 49.5923 859.445 51.9749C859.207 56.502 860.395 58.4081 861.821 62.4586C863.009 63.6499 865.147 66.0325 866.811 68.1769C869.187 71.0361 874.651 75.5631 878.928 84.1406C883.443 92.7181 888.432 107.967 891.759 125.36C892.709 131.793 894.61 136.797 891.996 143.468C888.67 147.757 887.482 148.472 882.73 150.14C882.73 150.14 895.798 167.295 895.798 170.392C895.798 172.775 894.847 173.728 894.847 173.728H837.823C831.646 181.352 814.063 192.313 796.719 193.98V193.98Z" fill="white"/>
<path d="M845.427 4.56034C848.991 7.89604 852.317 11.2317 855.406 14.8057C857.782 16.4736 858.97 18.8562 860.871 21.0006C861.346 22.1919 862.296 23.3832 861.583 24.8128L860.633 25.7659L859.683 35.2964C859.207 36.0112 859.445 36.9643 858.732 37.6791V38.1556V38.1556C858.495 40.0617 858.257 42.2061 857.544 43.874C857.307 46.0183 856.356 48.1627 856.356 50.5454C856.119 54.5958 857.307 58.6463 858.495 62.2203C859.445 63.1734 859.445 64.3647 860.633 65.3177V65.3177C863.484 68.6534 866.811 71.9891 869.899 75.5631L873.463 79.8519C873.463 80.3284 873.939 80.8049 874.414 81.0432C882.492 93.4329 884.631 108.444 888.432 122.739C889.383 128.696 891.521 135.606 888.907 141.562C885.819 145.613 881.304 147.519 877.027 148.949C881.779 155.858 887.244 162.53 891.759 169.439C891.759 169.916 891.996 170.154 891.759 170.392C889.145 170.392 886.294 169.916 883.68 169.916C879.403 163.244 874.651 156.573 869.899 150.378C869.662 150.14 869.187 150.378 869.187 150.14C869.187 150.14 868.949 150.14 869.187 150.378C867.999 150.378 866.335 150.616 865.147 150.855C864.672 151.569 864.672 152.522 864.435 153.476C864.197 154.19 864.197 155.143 863.722 155.858C864.672 157.049 864.91 158.479 865.86 159.432C867.523 163.244 869.187 167.057 870.85 170.869H860.871H842.338C841.387 171.107 840.437 170.631 839.724 170.869H837.586C838.536 170.154 839.011 168.963 839.962 168.486C848.753 168.248 857.307 168.963 866.335 168.248C865.147 163.959 863.009 160.147 860.395 156.335L857.307 152.761C854.693 151.569 851.842 151.093 849.466 150.14L852.317 139.894C857.307 141.086 861.821 143.23 866.573 144.898C874.176 132.747 879.403 118.927 878.453 103.678L877.74 98.6747C877.265 98.1982 877.74 97.7217 877.265 97.2452C875.602 88.1911 871.8 80.0901 865.385 73.4187C865.385 73.657 865.623 73.8953 865.623 74.1335C865.86 75.8014 866.811 77.7075 865.385 79.1371C864.197 80.5667 862.296 80.3284 860.871 80.0901C856.594 76.9927 853.505 72.2274 849.941 68.6534C845.189 63.6499 839.249 58.8846 831.883 59.1229C829.032 58.8846 826.419 59.5994 824.043 60.3142C823.805 60.3142 823.805 60.7907 824.043 60.7907C828.082 61.2672 831.646 63.1734 834.972 65.3177C839.724 69.13 842.575 73.8953 844.239 79.3753C841.15 78.4223 838.299 77.4692 835.21 76.9927C835.685 76.5162 836.635 76.2779 836.398 75.3248C835.685 74.3718 834.735 74.8483 833.784 74.3718H832.834C832.834 75.5631 834.022 76.5162 834.735 76.7544C833.784 76.2779 832.834 76.0396 831.883 75.8014C832.359 75.3248 831.883 74.8483 831.171 74.8483C830.22 75.0866 829.27 74.3718 828.319 74.8483L828.795 75.3248C828.082 75.0866 827.131 75.0866 826.419 74.61C826.894 74.3718 826.894 74.1335 826.894 73.657C825.943 73.1805 824.755 73.657 824.28 72.4657H824.518C824.518 72.7039 824.518 72.9422 824.755 72.9422C824.28 72.9422 823.805 72.2274 823.567 72.7039C823.567 73.4187 824.043 73.657 824.518 73.8953L825.231 74.1335C819.766 73.4187 814.064 71.9891 808.361 71.0361C809.312 69.13 810.975 67.2239 812.4 65.556C810.024 61.2672 806.936 57.2168 804.084 53.1663L797.669 44.827C796.481 44.1122 795.531 42.6826 794.105 42.4444C791.967 41.0148 789.591 40.0617 787.215 39.3469C784.364 29.8164 780.8 20.7623 776.76 11.7083L780.8 15.2822L793.63 27.9102L798.382 31.9607C798.62 33.6286 798.62 35.773 799.332 37.4408C799.808 39.5852 801.471 41.0148 802.184 42.9209C806.46 48.8775 810.975 54.3576 814.776 60.5525C815.252 61.029 815.964 61.5055 815.727 62.2203V62.2203C816.677 61.7438 817.152 60.7907 818.34 60.3142C820.954 58.8846 823.567 57.6933 826.419 57.2168H826.656C826.894 56.7402 826.181 56.502 826.181 55.7872C825.943 55.5489 825.468 55.5489 825.706 55.0724C824.043 54.3576 821.191 53.8811 821.191 51.4984L820.716 45.7801C820.241 42.2061 817.152 38.8704 818.815 34.8199C819.053 34.5816 819.053 34.1051 819.291 33.6286H819.053C819.528 33.3903 819.528 32.9138 819.766 32.4373C819.528 30.5312 816.915 28.625 818.815 26.4807C819.053 26.2424 819.291 25.7659 819.053 25.5276C818.816 25.7659 818.103 25.7659 818.103 25.2893C817.865 21.0006 819.291 16.9501 819.766 12.8996C820.716 11.2317 821.904 10.0404 823.567 9.32563C827.844 7.41951 833.309 7.18125 837.823 5.98993C838.299 6.22819 838.299 5.75166 838.774 5.75166C841.15 5.5134 843.051 3.60728 845.427 4.56034V4.56034Z" fill="#EE000C"/>
<path d="M845.189 6.94298C846.377 8.37257 848.278 9.08736 848.991 10.7552C848.278 10.9935 847.565 10.2787 846.852 10.0404C844.001 8.8491 841.15 8.1343 838.061 7.65778V7.18125C839.962 6.70472 842.575 8.61083 843.763 6.46645C844.476 5.75166 844.951 6.46645 845.189 6.94298V6.94298Z" fill="white"/>
<path d="M847.565 11.7083C850.416 13.6144 853.98 14.5674 856.356 17.6649H856.119C856.119 17.9031 856.356 17.9031 856.356 17.9031H856.594C857.544 19.3327 856.831 21.4771 856.831 23.145L856.119 28.625C856.831 29.3398 857.307 30.0546 857.544 30.7694L857.782 30.2929C858.019 27.4337 858.257 24.3363 858.732 21.2388C858.732 21.2388 858.97 21.0006 858.97 20.7623C859.445 21.2388 859.683 21.7154 859.92 22.1919H859.683C859.683 25.7659 859.445 29.3398 858.732 32.6755H858.495C858.257 32.6755 858.019 32.199 857.782 32.199C858.019 31.7225 857.307 31.9607 857.307 31.4842C856.594 30.7694 855.881 29.8164 855.168 29.1016C854.218 27.672 852.792 26.4807 851.604 25.5276C850.179 24.5745 848.753 23.3832 847.09 22.6684C843.526 20.0475 838.774 19.8093 834.497 18.6179C832.359 18.8562 829.983 18.3797 827.844 18.8562V18.8562H828.082C828.795 15.7588 829.745 12.6613 829.983 9.32563C834.022 8.8491 838.299 8.8491 842.1 10.0404L847.565 11.7083V11.7083Z" fill="white"/>
<path d="M828.795 9.56389C828.32 12.8996 827.607 15.997 826.894 19.3327L824.993 20.0475C825.468 16.9501 825.944 13.6144 826.656 10.5169C827.369 9.80215 828.082 9.80215 828.795 9.56389V9.56389Z" fill="white"/>
<path d="M822.379 13.8526L821.429 20.7623C820.954 20.7623 820.479 21.4771 820.241 21.2388C820.479 18.6179 821.191 15.997 821.667 13.3761C821.904 13.1379 822.617 13.3761 822.379 13.8526V13.8526Z" fill="white"/>
<path d="M782.463 19.0945C787.215 23.8598 791.729 28.3868 796.719 32.6755C797.432 32.6755 796.956 33.3903 797.194 33.6286C798.144 40.3 803.372 45.3035 806.46 51.0219C806.46 51.4984 805.985 51.2601 805.985 51.4984C805.747 51.7367 805.51 51.9749 805.035 52.2132V51.9749C801.233 46.4949 797.194 40.7765 793.155 35.2964C791.016 32.4373 789.353 29.1016 786.977 26.4807C788.165 29.8164 789.828 33.3903 791.016 36.9643C790.779 37.4408 790.304 37.6791 789.828 37.4408C788.878 36.9643 788.403 36.0112 787.928 35.0582L781.512 18.1414L781.037 17.6649C781.75 18.1414 782.463 18.3797 782.463 19.0945V19.0945Z" fill="white"/>
<path d="M845.427 23.3832C845.189 24.5745 846.377 25.5276 846.377 26.7189C847.327 31.0077 847.327 36.2495 846.615 40.5382C845.902 42.2061 845.427 43.8739 844.714 45.3035C843.763 46.9714 842.575 48.8775 840.912 49.8306C838.299 52.2132 834.022 53.1663 830.695 51.7367C828.557 51.7367 828.082 47.4479 825.706 49.5923C825.468 50.0688 824.755 50.5454 824.755 51.2601L824.518 51.4984C824.043 50.5454 824.518 49.1158 824.28 48.401C824.518 46.9714 825.943 46.9714 827.131 46.7331L829.27 46.9714H829.507C829.032 46.2566 828.795 45.3035 828.557 44.5887C827.607 44.1122 826.656 44.827 825.468 44.5887C824.993 44.5887 824.518 44.5887 824.28 44.3505H824.518C824.518 44.1122 824.28 43.8739 824.518 43.3974C825.706 42.6826 827.369 42.4444 828.557 42.2061C829.27 42.6826 829.983 41.9678 830.458 42.4444L832.596 42.6826C833.071 43.1592 833.547 43.3974 834.022 43.6357C834.497 43.3974 833.784 43.1592 833.784 42.9209V42.9209C833.309 42.6826 833.309 40.5382 832.121 41.4913C829.745 41.7296 828.082 38.8704 825.943 40.7765C825.231 41.0148 824.755 39.8235 824.043 40.7765L823.33 41.253C823.567 40.3 823.805 39.3469 824.28 38.6321H824.043C824.993 38.1556 825.943 39.1087 826.656 38.1556L826.419 37.6791L826.656 37.9173V37.9173L826.419 37.6791L826.656 37.4408C827.844 37.4408 829.745 38.6321 830.22 37.2025C830.22 36.4878 829.745 35.773 829.032 35.2964C827.607 35.2964 826.656 36.2495 825.468 36.0112C824.755 35.5347 823.567 35.0582 823.33 34.3434C824.043 31.9607 824.755 29.8164 825.943 27.672C826.656 27.4337 827.131 28.1485 827.844 27.9102C828.319 29.3398 829.983 29.5781 831.171 30.5311C832.121 30.7694 832.834 31.2459 833.784 31.0077C834.022 30.7694 834.259 31.2459 834.735 31.0077C834.497 29.8164 833.071 29.1016 833.071 27.9102C833.071 27.672 832.596 27.672 832.834 27.4337C835.21 26.9572 837.823 27.4337 839.487 28.625H839.724C837.586 27.4337 835.685 25.2893 832.834 25.7659V25.7659L832.359 25.5276C834.972 23.8597 837.823 25.7659 840.437 26.2424L840.675 26.0041C838.299 24.5745 835.685 23.3832 833.071 22.9067C831.171 22.9067 829.745 23.6215 828.082 24.098C827.369 23.6215 826.656 22.9067 826.894 21.7154C826.894 21.4771 826.894 21.2388 827.131 21.2388C829.507 20.2858 832.121 20.2858 834.735 20.2858C838.774 21.0006 842.338 21.9536 845.427 23.3832V23.3832Z" fill="white"/>
<path d="M849.941 25.7659C849.228 25.7659 848.753 26.7189 848.04 26.2424C848.278 25.5276 846.615 25.2893 847.565 24.5745C848.278 25.2893 849.941 24.3363 849.941 25.7659V25.7659Z" fill="white"/>
<path d="M854.455 29.5781L854.218 30.0546C853.505 30.0546 853.03 29.3398 852.792 28.625L852.555 27.672C853.743 27.9102 853.98 28.8633 854.455 29.5781V29.5781Z" fill="white"/>
<path d="M851.129 28.1485C851.367 28.625 851.604 28.8633 851.604 29.3398C851.367 29.8164 850.891 29.5781 850.654 29.8164C850.179 29.5781 849.703 28.8633 849.466 28.3868C849.466 27.4337 850.416 28.1485 851.129 28.1485V28.1485Z" fill="white"/>
<path d="M848.991 29.3398C848.991 29.8164 849.703 30.0546 849.703 30.5311C849.228 30.7694 848.753 30.2929 848.278 30.0546C848.04 29.8164 847.803 29.5781 848.04 29.3398C848.278 29.3398 848.753 29.8164 848.991 29.3398V29.3398Z" fill="white"/>
<path d="M854.218 31.9607C853.743 32.6755 853.03 32.4373 852.555 32.6755C851.842 32.4373 851.842 31.7225 851.367 31.4842C851.604 31.2459 852.079 31.0077 852.555 31.0077C853.03 31.2459 853.743 31.7225 854.218 31.9607V31.9607Z" fill="white"/>
<path d="M851.129 32.6755V33.8669C850.179 33.6286 848.991 33.6286 848.515 32.6755C848.753 32.4373 848.515 31.9607 848.991 31.7225C849.941 31.9607 850.416 32.4373 851.129 32.6755V32.6755Z" fill="white"/>
<path d="M857.307 33.6286C857.307 34.1051 856.356 34.3434 855.881 34.8199C854.931 34.8199 854.218 35.0582 853.743 34.3434C853.98 34.3434 853.98 34.1051 854.218 34.1051C854.218 33.8669 853.743 33.6286 853.743 33.6286C854.455 33.8669 855.168 33.8669 855.643 33.6286C855.881 33.3903 855.881 33.1521 855.643 32.9138C856.119 32.9138 856.831 33.1521 857.307 33.6286V33.6286Z" fill="white"/>
<path d="M849.228 35.0582C849.228 35.2964 848.991 35.2964 848.753 35.2964V34.8199C848.991 34.8199 849.228 35.0582 849.228 35.0582V35.0582Z" fill="white"/>
<path d="M853.98 36.0112C854.218 36.4878 853.743 36.726 853.505 36.9643C853.03 37.2025 852.317 37.4408 851.604 36.9643C851.129 36.4878 850.654 36.0112 850.416 35.2964C851.367 34.8199 852.317 35.2964 853.267 35.773L853.98 36.0112V36.0112Z" fill="white"/>
<path d="M831.646 35.0582C832.121 35.5347 833.309 35.0582 833.547 36.0112C834.497 37.2026 834.259 39.3469 835.447 40.3C835.447 40.5383 835.685 40.7765 835.447 41.0148C834.972 40.7765 834.735 40.3 834.259 40.0617C833.784 39.1087 832.834 38.8704 832.121 38.1556C832.121 36.9643 831.408 36.0112 831.171 35.0582H831.646V35.0582V35.0582Z" fill="#EE000C"/>
<path d="M857.544 35.2964V35.2964C857.544 35.2964 856.831 35.5347 857.307 35.773C857.544 35.773 857.782 35.773 857.782 36.2495C857.782 36.4878 857.782 36.726 857.782 37.2026C857.307 38.1556 856.594 37.2026 855.643 37.4408L855.168 36.726C855.168 36.0112 856.119 36.4878 856.119 35.773C856.356 35.773 856.594 35.2964 857.069 35.2964V35.2964L857.544 35.0582C857.544 35.0582 857.307 35.2964 857.544 35.2964V35.2964Z" fill="white"/>
<path d="M850.654 37.6791C850.654 37.9173 851.129 37.6791 851.129 37.9173C850.891 38.6321 850.179 38.6321 849.703 38.8704C849.466 38.6321 849.228 38.3939 848.753 38.3939C848.278 37.9173 847.803 37.4408 848.278 36.9643L848.515 36.726C849.466 36.9643 850.179 36.9643 850.654 37.6791V37.6791Z" fill="white"/>
<path d="M856.119 38.6321L854.218 40.3C853.505 40.0617 852.555 39.8235 852.317 39.1087C852.792 38.6321 853.743 38.6321 854.455 38.3939C854.931 37.4408 855.406 38.6321 856.119 38.3939C856.356 38.1556 856.119 38.3939 856.119 38.6321V38.6321Z" fill="white"/>
<path d="M852.555 40.5382L853.03 40.3C853.267 40.3 853.267 40.7765 853.267 41.0148C852.792 41.4913 852.079 42.4444 851.129 41.9678C850.179 41.9678 850.179 40.7765 849.466 40.0617C849.941 39.1087 850.891 40.3 851.842 40.0617L852.555 40.5382V40.5382Z" fill="white"/>
<path d="M856.831 40.0617C857.782 40.3 857.069 41.4913 857.069 42.2061C856.831 42.9209 856.119 42.2061 855.643 42.2061L854.455 41.253C854.931 40.3 856.356 40.5382 857.069 39.8235L856.831 40.0617V40.0617Z" fill="white"/>
<path d="M848.991 41.9678L849.941 42.6826C849.466 42.9209 848.515 43.3974 848.04 42.9209C847.803 42.6826 847.327 42.9209 847.09 42.4444C846.852 41.7296 847.803 41.9678 847.565 41.253C848.278 40.7765 848.753 41.253 848.991 41.9678V41.9678Z" fill="white"/>
<path d="M855.406 43.3974C855.168 44.1122 854.455 44.1122 853.743 44.3505C853.03 44.1122 852.079 44.3505 851.604 43.3974C852.079 42.9209 852.792 42.9209 853.267 42.6826C854.218 42.6826 854.931 42.9209 855.406 43.3974V43.3974Z" fill="white"/>
<path d="M856.356 45.7801C856.119 46.2566 856.594 46.9714 855.881 47.2097C855.168 46.9714 854.218 46.7331 853.743 46.0183C853.98 45.7801 854.455 45.7801 854.931 45.5418L855.643 44.3505C856.594 44.3505 856.119 45.3035 856.356 45.7801V45.7801Z" fill="white"/>
<path d="M851.367 44.827L852.317 45.5418C851.842 45.7801 851.604 46.2566 851.129 46.4949C849.941 46.0183 848.278 46.0183 847.803 44.5888C848.515 44.3505 849.703 44.3505 850.179 45.0653L851.367 44.827V44.827Z" fill="white"/>
<path d="M848.278 46.4949V46.9714C847.327 46.7331 846.377 47.9244 845.664 46.9714C845.189 46.7331 845.189 46.2566 845.189 45.7801C845.427 45.5418 845.427 45.3035 845.902 45.3035C847.09 45.0653 847.565 46.0183 848.278 46.4949V46.4949Z" fill="white"/>
<path d="M854.218 47.9244C853.98 48.401 853.743 48.6392 853.505 48.8775C852.555 49.1158 852.079 49.1158 851.129 48.8775C850.891 48.401 849.941 48.401 850.416 47.6862C851.604 47.4479 852.792 47.2097 853.98 47.4479L854.218 47.9244V47.9244Z" fill="white"/>
<path d="M850.416 49.5923C849.703 50.0688 848.753 50.0688 847.803 49.8306C847.327 49.354 846.377 49.1158 846.615 48.6392C847.327 48.1627 848.278 48.6392 849.228 48.401C849.228 48.8775 850.179 49.1158 850.416 49.5923V49.5923Z" fill="white"/>
<path d="M855.881 50.7836C855.881 51.7367 854.931 51.2601 854.455 51.4984C853.98 51.4984 853.505 50.7836 853.267 50.3071C853.743 50.0688 853.98 50.3071 854.455 50.0688C854.931 49.8306 855.168 49.354 855.643 49.354C855.881 49.8306 855.406 50.3071 855.881 50.7836V50.7836Z" fill="white"/>
<path d="M846.615 50.3071C846.615 50.5454 847.09 50.7836 846.852 50.7836C846.139 51.2601 845.189 51.7367 844.476 51.2601C844.001 50.7836 843.051 50.7836 843.288 50.0688C844.476 49.8306 845.664 50.3071 846.615 50.3071V50.3071Z" fill="white"/>
<path d="M852.317 51.4984C852.079 52.2132 851.604 52.6897 850.891 52.928C850.179 52.6897 848.991 52.4515 848.515 51.7367C848.753 51.4984 849.466 51.2601 849.703 51.7367C849.941 52.2132 850.416 51.9749 850.654 51.9749C851.129 51.7367 851.129 51.0219 851.842 51.0219C852.079 51.0219 851.842 51.4984 852.317 51.4984V51.4984Z" fill="white"/>
<path d="M843.763 53.1663C843.763 53.6428 844.239 53.8811 844.001 54.3576C842.813 54.3576 841.387 54.8341 840.437 53.6428C840.437 53.1663 840.912 53.1663 841.387 52.928C841.625 53.1663 842.1 53.1663 842.338 53.1663C842.575 52.4515 843.763 52.4515 843.763 53.1663V53.1663Z" fill="white"/>
<path d="M847.327 52.6897V52.6897C847.803 52.6897 848.515 52.6897 848.515 53.1663C848.278 54.1193 847.09 53.8811 846.139 54.1193C845.902 53.4045 844.951 53.4045 844.714 52.6897C845.664 52.2132 846.615 53.6428 847.327 52.6897V52.6897Z" fill="white"/>
<path d="M854.931 53.4045C855.168 53.8811 854.455 54.5959 854.218 54.8341C853.505 55.0724 852.555 55.3106 852.079 54.5959C851.842 54.3576 851.129 53.8811 851.842 53.6428C852.792 53.6428 853.743 52.6897 854.693 52.928L854.931 53.4045V53.4045Z" fill="white"/>
<path d="M808.361 53.8811C810.5 56.7402 812.638 59.8377 814.776 62.6968C814.301 63.1734 814.301 63.8882 813.588 63.8882C811.212 60.7907 808.836 57.455 806.698 54.1193C806.936 53.8811 806.936 53.4045 807.411 53.8811V53.8811C807.173 53.1663 808.124 53.4045 808.361 53.8811V53.8811Z" fill="white"/>
<path d="M840.437 55.0724C840.199 55.5489 839.724 56.0254 839.249 56.502C838.299 56.502 837.111 56.502 836.635 55.5489C836.635 55.5489 836.635 55.3106 836.635 55.0724L838.536 55.5489C839.011 55.3106 839.962 53.881 840.437 55.0724V55.0724Z" fill="white"/>
<path d="M851.129 56.0254C851.129 56.2637 851.129 56.502 851.129 56.502C849.941 56.9785 848.278 57.2168 847.327 56.0254V55.7872C847.803 55.5489 848.278 55.0724 848.753 55.5489C849.703 55.7872 850.416 54.5958 851.129 55.3106V56.0254V56.0254Z" fill="white"/>
<path d="M845.427 55.5489V56.0254C844.714 56.2637 843.763 56.7402 843.051 57.2168C842.575 56.7402 841.863 56.502 841.625 56.0254C842.1 55.7872 842.813 55.5489 843.526 56.0254C844.239 55.5489 844.951 55.3106 845.427 55.5489V55.5489Z" fill="white"/>
<path d="M854.693 56.9785C854.693 57.9316 853.267 57.455 852.555 57.9316C852.079 57.9316 851.129 57.9315 850.891 57.455C851.129 56.7402 852.079 56.9785 852.555 56.502C853.505 56.9785 854.693 55.3106 854.693 56.9785V56.9785V56.9785Z" fill="white"/>
<path d="M834.972 57.455C834.972 57.6933 834.972 57.9315 834.735 57.9315C834.259 57.9315 833.784 57.6933 833.547 57.455C833.547 56.9785 834.022 57.455 834.259 57.2168C834.497 57.2168 834.972 57.2168 834.972 57.455V57.455Z" fill="white"/>
<path d="M848.515 58.6463C848.04 59.5994 847.09 59.1229 846.377 59.3611C845.902 58.8846 844.951 58.6463 844.476 58.1698C844.951 57.2168 846.139 57.9315 847.09 57.455C847.565 58.1698 849.228 57.2168 848.515 58.6463V58.6463Z" fill="white"/>
<path d="M841.625 58.4081C841.625 59.1229 840.912 58.6463 840.912 59.3611C839.962 58.8846 839.012 58.8846 838.299 58.4081C838.774 57.9315 839.724 57.9315 840.437 57.9315C840.675 57.6933 841.863 57.455 841.625 58.4081V58.4081Z" fill="white"/>
<path d="M856.356 58.6463C856.356 58.8846 856.119 59.1229 856.594 59.3611C856.356 59.8377 855.881 60.5525 855.406 61.029C854.455 60.7907 853.505 61.029 853.267 59.8377C853.743 58.8846 855.168 60.0759 855.406 58.8846C855.643 58.1698 856.356 58.1698 856.356 58.6463V58.6463Z" fill="white"/>
<path d="M851.842 59.3611C852.317 59.5994 852.079 60.3142 852.555 60.7907C851.604 61.2672 850.179 60.7907 849.228 60.0759C849.228 59.5994 849.228 58.8846 849.941 58.8846C850.654 59.1229 850.891 60.0759 851.842 59.3611V59.3611Z" fill="white"/>
<path d="M845.664 60.3142C845.189 60.5525 844.239 61.2672 843.526 61.029L842.1 60.0759C842.575 59.8377 843.051 59.5994 843.526 59.3611C844.001 59.8377 844.951 60.0759 845.664 60.3142V60.3142Z" fill="white"/>
<path d="M849.228 61.7438C848.991 62.6968 847.803 62.2203 847.327 62.6968C846.852 62.6968 846.139 62.6968 845.902 61.982C846.377 61.982 846.615 61.5055 846.615 61.2672C847.09 61.5055 847.565 61.5055 848.04 61.2672L849.228 61.7438V61.7438Z" fill="white"/>
<path d="M857.544 62.6968C857.544 63.4116 857.069 63.6499 856.356 63.6499C855.643 63.6499 854.931 63.1734 854.693 62.6968C855.168 61.7438 856.356 62.6968 856.594 61.5055C857.069 61.7438 857.069 62.4586 857.544 62.6968V62.6968Z" fill="white"/>
<path d="M853.505 61.982C853.03 62.4586 853.98 63.4116 853.03 63.6499C852.555 63.8882 852.079 63.8882 851.604 63.4116L850.654 62.4586C851.129 62.2203 851.604 62.2203 852.079 62.2203C852.555 62.2203 853.03 62.2203 853.505 61.982V61.982Z" fill="white"/>
<path d="M827.131 62.9351C827.369 63.4116 827.607 63.6499 827.607 64.1264L825.943 65.0795C824.755 65.0795 823.33 64.6029 823.092 63.4116C823.33 62.9351 823.567 63.4116 824.043 63.4116C824.993 63.6499 825.943 62.6968 827.131 62.9351L827.607 62.4586C827.607 62.9351 827.131 62.6968 827.131 62.9351V62.9351Z" fill="white"/>
<path d="M820.241 62.6968C820.479 63.6499 819.528 63.1734 819.291 63.6499C818.815 63.4116 818.34 63.6499 817.865 63.1734C817.865 62.6968 817.865 62.6968 818.34 62.6968H820.241V62.6968Z" fill="white"/>
<path d="M850.416 64.6029C849.941 65.0795 849.228 65.3177 848.515 65.0795C848.278 64.8412 847.327 64.6029 847.803 63.8882C848.278 63.6499 848.753 63.6499 849.466 63.6499L850.416 64.6029V64.6029Z" fill="white"/>
<path d="M831.883 64.6029C831.883 65.0795 831.646 65.556 831.171 65.7943C829.983 65.7943 828.795 66.0325 827.844 65.3177L828.557 64.6029C828.795 64.8412 829.27 64.6029 829.507 64.3647C829.983 63.8882 830.695 63.8882 831.408 64.1264L831.883 64.6029V64.6029Z" fill="white"/>
<path d="M859.445 65.0795C859.445 65.556 859.683 65.7943 859.445 66.2708C858.732 65.7943 857.069 66.7473 857.069 65.0795C857.307 64.8412 857.544 65.0795 857.782 65.0795C858.257 64.3647 858.97 64.8412 859.445 65.0795V65.0795Z" fill="white"/>
<path d="M817.152 65.0795C817.152 65.556 817.152 65.7943 816.677 65.7943C816.202 65.556 815.251 65.556 815.251 64.8412C815.964 64.6029 816.915 64.8412 817.152 65.0795V65.0795Z" fill="white"/>
<path d="M853.267 65.0795C853.267 65.556 852.792 66.0325 852.317 66.0325C852.079 66.5091 851.367 66.0325 851.129 66.0325V66.0325C851.367 64.8412 852.555 65.556 853.267 65.0795V65.0795Z" fill="white"/>
<path d="M822.617 65.7943C822.142 66.0325 821.667 66.7473 821.191 66.9856C820.241 66.9856 819.528 66.2708 818.578 66.2708V65.556C819.766 66.5091 820.716 64.8412 821.904 65.3177L822.617 65.7943V65.7943Z" fill="white"/>
<path d="M856.119 66.2708L856.356 66.7473C855.643 67.4621 854.693 66.9856 853.743 66.9856C854.218 66.7473 854.218 65.7943 854.693 66.0325L855.406 65.3177C856.119 65.556 855.643 66.2708 856.119 66.2708V66.2708Z" fill="white"/>
<path d="M834.972 67.4621C835.21 67.7004 835.448 67.4621 835.685 67.4621C834.497 68.4152 832.596 68.4152 831.408 67.9386L830.933 67.4621C831.646 66.9856 833.309 67.4621 833.784 66.2708C834.022 66.5091 835.21 66.5091 834.972 67.4621V67.4621Z" fill="white"/>
<path d="M827.607 66.9856C827.607 68.1769 826.419 67.9387 825.944 68.4152C825.231 67.7004 824.28 67.7004 823.568 66.9856C824.043 66.2708 824.518 67.2239 825.231 66.9856C825.944 66.7473 827.132 66.2708 827.607 66.9856V66.9856Z" fill="white"/>
<path d="M815.964 67.9386C815.489 67.9386 815.727 68.4152 815.489 68.6534C814.776 68.8917 814.301 68.6534 814.063 67.9386V67.4621C814.539 67.4621 815.489 67.4621 815.964 67.9386V67.9386Z" fill="white"/>
<path d="M861.583 69.13V69.13C861.108 69.13 860.395 68.8917 860.158 68.6534C859.683 68.6534 859.207 68.4152 858.97 68.1769C858.97 67.9386 859.445 67.9386 859.683 67.9386C860.158 67.9386 860.395 67.2239 860.871 67.4621C861.346 67.9386 861.583 68.6534 861.583 69.13V69.13Z" fill="white"/>
<path d="M853.743 68.4152C853.267 68.6534 853.267 69.3682 852.555 68.8917C852.079 68.6534 851.129 68.4152 851.367 67.7004C851.842 67.7004 852.555 67.2239 853.03 67.4621C853.267 67.7004 853.267 68.4152 853.743 68.4152V68.4152Z" fill="white"/>
<path d="M821.191 68.4152C820.479 68.6534 819.291 69.6065 818.578 68.8917C818.103 68.4152 817.865 67.9386 817.39 67.4621C818.578 68.1769 819.766 68.4152 821.191 68.4152V68.4152Z" fill="white"/>
<path d="M857.544 68.8917C857.782 69.13 858.257 69.6065 858.257 69.8448C857.544 70.3213 856.831 69.8448 856.356 69.8448C856.119 69.6065 855.643 69.3682 855.406 68.8917C855.881 68.4152 856.594 69.13 857.069 68.6534C857.544 68.1769 857.307 68.6534 857.544 68.8917V68.8917Z" fill="white"/>
<path d="M832.121 69.3682C831.883 70.083 831.171 69.6065 830.695 70.3213C829.745 71.0361 829.032 69.8448 828.319 69.6065C827.844 69.13 828.319 68.6534 828.795 68.6534C829.983 68.1769 830.695 69.3682 832.121 69.3682V69.3682Z" fill="white"/>
<path d="M837.586 69.3682C837.823 69.6065 837.823 70.083 838.061 70.3213C837.823 71.2744 836.873 70.7978 836.16 71.0361C835.21 71.0361 834.497 70.5596 833.784 70.083C833.547 69.8448 833.547 69.6065 833.547 69.6065C834.022 69.3682 834.735 70.083 834.972 69.3682C836.16 70.083 836.398 67.9387 837.348 69.13H837.586V69.3682Z" fill="white"/>
<path d="M825.943 69.8448C826.181 69.8448 826.419 69.6065 826.894 69.8448V70.5596C825.943 70.7978 824.993 70.7978 824.043 70.5596C823.567 70.3213 823.092 70.083 822.617 69.8448C822.617 69.3682 823.092 69.3682 823.33 69.13C823.805 69.6065 824.993 69.3682 825.943 69.8448V69.8448Z" fill="white"/>
<path d="M863.484 70.083C863.484 70.3213 863.722 70.7978 863.959 70.7978C863.959 71.0361 863.722 71.0361 863.484 71.0361L863.247 70.7978C862.534 71.0361 861.821 70.5596 861.346 70.3213V70.3213C861.583 69.8448 862.771 69.3682 863.484 70.083V70.083Z" fill="white"/>
<path d="M855.881 71.0361C855.406 71.5126 854.931 71.2743 854.218 71.5126C853.743 71.5126 853.505 71.0361 853.267 70.5596C853.505 69.8448 854.218 70.3213 854.693 70.3213L855.881 71.0361V71.0361Z" fill="white"/>
<path d="M838.299 70.3213L838.774 70.083L838.536 70.3213H838.299V70.3213Z" fill="white"/>
<path d="M812.638 70.5596C812.638 70.7978 812.4 71.0361 812.163 71.2744C811.687 71.2744 810.975 71.0361 810.975 70.5596C811.45 70.083 812.163 70.7978 812.638 70.5596V70.5596Z" fill="white"/>
<path d="M817.152 71.2743C816.915 71.7509 816.915 71.9891 816.439 71.9891C815.727 71.7509 815.014 71.7509 814.301 71.0361L814.776 70.5596C815.489 71.0361 816.439 70.7978 817.152 71.2743V71.2743Z" fill="white"/>
<path d="M786.502 71.0361C792.442 71.5126 798.857 71.7509 805.035 72.2274C805.51 72.7039 805.985 72.7039 806.46 72.4657C818.815 74.1335 830.695 76.9927 842.338 80.3284C848.515 81.9962 854.455 84.3789 860.395 87.2381C860.871 87.7146 860.871 88.1911 860.871 88.9059C858.732 100.819 856.594 112.494 854.218 124.169C853.267 129.173 851.604 134.653 851.129 139.418C850.891 139.418 851.129 139.894 850.654 139.894L850.891 140.133C848.753 150.378 845.189 160.147 838.299 168.248C837.823 168.248 838.061 168.963 837.586 169.201C827.131 181.352 813.113 189.692 797.194 191.121C787.452 183.735 780.8 173.251 776.285 162.53C772.721 153.237 771.296 142.992 772.484 132.747C773.672 119.88 776.998 107.491 779.374 95.1008C780.087 94.386 779.612 93.1947 780.087 92.4799C781.75 85.3319 783.651 78.184 785.076 71.0361C785.789 70.7978 786.502 71.0361 787.215 71.0361H786.502V71.0361Z" fill="#EE000C"/>
<path d="M834.022 71.9891C834.259 72.2274 834.735 72.2274 835.21 72.4657C834.735 72.9422 834.022 72.7039 833.547 72.9422C832.834 72.4657 832.121 72.2274 831.883 71.5126C832.121 71.5126 832.359 70.7978 832.834 71.0361C833.071 71.5126 833.547 71.9891 834.022 71.9891V71.9891Z" fill="white"/>
<path d="M822.617 71.5126C823.092 71.5126 822.617 71.9891 823.092 72.2274C822.142 72.9422 821.192 72.7039 820.004 72.4657C820.241 71.9891 819.528 72.2274 819.766 71.7509C819.528 71.5126 819.291 71.5126 819.291 71.0361C820.479 71.2743 821.429 71.7509 822.617 71.5126V71.5126Z" fill="white"/>
<path d="M861.583 71.9891C860.871 72.7039 859.683 71.9891 858.732 71.9891L858.495 71.5126C859.207 71.0361 859.92 71.2743 860.871 71.0361C861.108 71.2743 861.583 71.5126 861.583 71.9891V71.9891Z" fill="white"/>
<path d="M829.983 71.9891C830.933 71.7509 830.458 73.1805 831.408 73.1805C831.408 73.8953 830.458 73.657 830.22 73.657C829.032 73.1805 827.844 72.9422 827.132 71.7509C827.369 71.2743 827.844 71.0361 828.319 71.5126C828.795 71.9891 829.507 71.9891 829.983 71.9891V71.9891Z" fill="white"/>
<path d="M839.962 73.8953L839.724 74.3718C838.299 74.3718 836.873 74.3718 836.16 72.9422C836.873 71.9891 838.061 73.1805 839.011 72.2274C839.249 72.7039 839.962 73.1805 839.962 73.8953V73.8953Z" fill="white"/>
<path d="M858.019 73.657C857.544 73.4187 857.307 73.657 856.831 74.1335C856.356 73.8953 855.406 74.1335 855.168 73.4187C855.406 72.4657 856.356 72.9422 857.069 72.7039L858.019 73.657V73.657Z" fill="white"/>
<path d="M864.435 74.1335C863.959 74.8483 863.009 74.61 862.296 74.61C862.059 74.3718 861.583 74.61 861.346 74.1335C861.583 73.4187 862.534 73.8953 862.771 73.4187C863.009 73.4187 863.247 73.657 863.247 73.4187L863.009 73.1805C863.484 72.2274 863.722 73.657 864.197 73.4187L864.435 74.1335V74.1335Z" fill="white"/>
<path d="M840.675 73.1805C840.675 73.1805 840.437 73.4187 840.199 73.4187L840.675 73.1805V73.1805Z" fill="white"/>
<path d="M797.194 73.8953L813.113 75.8014C811.688 83.4258 809.787 90.812 808.124 98.1982C807.886 98.1982 807.648 98.6747 807.648 98.6747C799.332 97.2452 791.254 96.5304 782.938 95.8156C783.176 95.339 782.7 95.339 782.7 95.1008C783.888 87.9528 785.552 81.5197 786.977 74.61C787.452 74.3718 787.215 73.657 787.452 73.4187C790.541 73.657 793.868 73.657 797.194 73.8953V73.8953Z" fill="white"/>
<path d="M860.633 75.3248C859.92 75.8014 858.732 76.0396 858.019 75.3248C857.782 75.3248 858.019 75.0866 858.019 74.8483C858.495 74.61 860.395 73.8953 860.633 75.3248V75.3248Z" fill="white"/>
<path d="M841.863 76.2779C841.863 76.5162 841.625 76.7544 841.863 76.9927C841.863 76.9927 842.1 76.9927 842.338 76.9927C842.1 76.9927 842.1 77.4692 841.863 77.231C840.912 78.6605 839.249 76.9927 838.061 76.9927C838.061 76.9927 838.536 76.5162 838.299 76.0396C839.487 76.5162 840.437 75.3248 841.625 76.0396L841.863 76.2779V76.2779Z" fill="white"/>
<path d="M865.385 76.9927V77.231C864.91 77.231 865.147 77.7075 864.672 77.7075C863.722 77.9457 863.959 76.9927 863.009 76.9927C863.247 76.5162 863.959 76.7544 864.435 76.5162C864.672 76.5162 865.147 76.5162 865.385 76.9927V76.9927Z" fill="white"/>
<path d="M861.583 76.9927C862.059 77.4692 862.296 78.4223 863.009 78.4223C862.534 78.4223 862.059 78.6605 861.346 78.4223C860.871 77.9457 859.683 78.184 859.92 77.4692C860.395 76.7544 860.871 77.4692 861.583 76.9927V76.9927Z" fill="white"/>
<path d="M824.993 81.9962L825.468 84.1406C824.993 85.5702 824.28 87.4763 822.617 87.9529L822.379 88.4294C821.429 93.6712 820.954 99.3895 820.003 104.393C823.33 105.584 826.894 106.776 829.745 109.158C829.745 110.111 829.27 111.779 829.27 112.494C826.419 111.541 823.567 110.35 820.716 109.635C815.727 108.682 810.975 107.729 805.985 107.252C804.322 107.252 803.134 107.729 801.946 107.252C802.183 106.061 802.183 104.631 802.421 103.44C805.985 102.725 810.262 102.725 813.826 103.202C814.539 102.249 814.539 100.819 815.014 99.8661C816.202 95.8156 817.152 91.2886 818.578 86.9998C818.578 86.0467 817.39 86.285 817.627 85.0937C816.915 84.6172 817.627 83.6641 817.152 82.9493C817.39 81.2815 819.291 80.0901 820.954 79.6136C822.617 79.6136 824.043 80.8049 824.993 81.9962V81.9962Z" fill="white"/>
<path d="M858.019 88.6676C857.307 90.5738 857.782 92.4799 857.307 94.386C856.356 99.8661 855.406 105.584 854.931 111.303C854.455 111.779 853.743 110.826 853.267 110.826C850.416 109.873 847.565 108.92 844.714 108.205H844.476C839.011 106.776 833.547 105.108 827.844 103.917C827.844 103.678 827.607 103.678 827.607 103.44C828.557 102.249 828.319 100.581 828.795 99.1513C830.22 92.7181 831.646 86.285 833.309 80.3284C842.1 81.758 849.941 85.5702 858.019 88.6676V88.6676Z" fill="white"/>
<path d="M879.166 93.1947V93.6712C878.691 93.9095 878.215 93.4329 877.978 92.9564C877.978 92.7181 877.978 92.7181 878.215 92.4799C878.453 92.7181 878.928 92.7181 879.166 93.1947V93.1947Z" fill="white"/>
<path d="M880.591 96.7686C880.354 97.4834 880.354 98.1982 879.641 98.1982C879.166 98.1982 878.691 97.96 878.215 97.2452C878.215 96.7686 879.166 96.5304 878.691 95.8156C879.166 96.7686 880.116 96.0538 880.591 96.7686V96.7686Z" fill="white"/>
<path d="M882.017 100.819C881.304 101.534 882.017 102.249 881.304 102.725C880.591 102.487 879.641 102.487 879.166 102.01C879.403 100.819 880.591 101.057 881.304 100.343C881.542 100.343 881.779 100.581 882.017 100.819V100.819Z" fill="white"/>
<path d="M883.68 104.393C884.155 105.346 882.967 105.823 883.205 106.776C882.255 106.776 881.304 106.537 880.354 106.061C880.591 105.108 881.779 105.346 882.492 104.87C882.73 104.393 883.205 103.678 883.68 104.393V104.393Z" fill="white"/>
<path d="M881.304 108.682C881.067 109.635 880.116 109.397 879.641 110.111C879.403 109.873 878.928 109.873 878.928 109.397C879.403 108.92 878.928 107.967 879.403 107.491C880.354 107.729 880.591 108.444 881.304 108.682V108.682Z" fill="white"/>
<path d="M884.631 110.35C884.868 111.064 884.155 111.541 883.68 111.779C882.967 111.541 882.017 111.541 881.779 110.826C882.492 110.111 883.918 108.205 884.631 110.35V110.35Z" fill="white"/>
<path d="M815.727 111.303C815.727 111.541 815.489 111.541 815.727 111.779C815.964 111.064 816.677 111.779 817.152 112.018C817.865 112.494 818.34 113.447 819.291 113.685L819.766 114.162L819.053 116.545L810.262 152.761C808.361 161.1 805.985 169.201 803.847 177.064C804.084 177.778 803.371 178.017 803.371 178.493L803.134 179.446C801.946 181.352 800.52 183.497 798.857 185.403C797.431 182.782 796.956 179.685 796.956 176.825C799.807 161.1 803.371 145.375 806.46 129.887L810.262 112.256C810.975 112.018 811.687 111.303 812.638 111.303L812.875 111.779L810.262 126.79L803.609 159.909C803.371 162.053 802.421 163.959 802.659 165.865V165.865C807.173 147.757 810.737 129.173 815.727 111.303V111.303V111.303Z" fill="white"/>
<path d="M883.443 112.971C883.68 113.209 883.443 113.447 883.443 113.685C882.967 114.162 882.255 113.924 881.542 114.4C880.829 114.4 879.641 114.4 880.116 113.447C880.116 113.209 880.354 112.971 880.591 112.971C881.304 113.447 881.779 112.256 882.73 112.971H883.443V112.971Z" fill="white"/>
<path d="M885.819 115.353C885.819 115.83 885.581 116.306 885.343 116.306C884.155 116.783 883.443 116.306 882.492 116.068L882.255 115.592C883.443 115.592 884.155 114.638 885.106 114.4C885.343 114.877 885.581 114.877 885.819 115.353V115.353Z" fill="white"/>
<path d="M880.354 115.83C880.591 116.306 880.354 116.783 880.829 116.783C880.354 117.021 879.641 116.783 879.166 116.545C878.928 116.306 878.928 116.068 879.166 115.592C879.641 115.353 880.116 115.83 880.354 115.83V115.83Z" fill="white"/>
<path d="M802.896 118.451C800.758 128.696 798.619 138.941 796.481 149.187C795.768 151.808 795.055 154.429 794.58 157.049C793.392 161.577 792.442 166.342 791.491 171.107C790.779 174.443 790.303 177.778 790.066 180.876L789.828 181.114C778.661 167.533 772.959 150.855 774.622 132.747C774.86 127.028 776.048 121.548 777.236 116.068C780.324 115.353 783.651 116.068 786.977 116.306C792.442 116.783 797.669 117.736 802.896 118.451V118.451Z" fill="white"/>
<path d="M884.631 118.212C883.918 119.404 882.73 119.165 881.542 119.165C881.304 118.689 881.067 118.451 880.829 117.974C881.304 116.783 882.492 118.212 883.205 118.212H884.631V118.212Z" fill="white"/>
<path d="M886.531 120.119C886.769 120.833 886.056 121.31 885.343 121.31C884.393 121.31 883.918 121.072 882.967 120.833C883.918 120.357 884.868 119.88 885.581 119.165C886.294 119.165 886.294 119.642 886.531 120.119V120.119Z" fill="white"/>
<path d="M881.067 120.595L882.017 120.833C882.017 121.31 882.017 122.263 881.304 122.025C880.354 122.025 878.928 122.025 878.453 121.072C878.453 120.595 878.691 120.119 879.166 120.119C879.641 120.119 880.591 119.88 881.067 120.595V120.595Z" fill="white"/>
<path d="M885.343 122.978C884.631 123.454 884.155 125.36 882.73 124.169C882.492 123.692 881.779 124.169 881.304 123.692C881.779 123.454 882.492 122.978 883.205 122.739C883.68 122.739 884.631 122.978 885.343 122.978V122.978Z" fill="white"/>
<path d="M879.403 123.692C879.403 124.169 878.928 124.169 878.691 124.407C878.215 124.407 877.74 124.169 877.74 123.692C877.978 122.739 879.166 122.978 879.403 123.692V123.692Z" fill="white"/>
<path d="M838.299 126.79C842.1 128.22 846.139 129.411 849.941 130.84V131.079V131.079C848.991 132.747 849.703 134.176 848.991 135.844C847.565 142.515 845.664 148.949 843.526 155.143C837.586 166.104 827.607 175.872 816.439 181.352C813.588 183.02 810.499 184.212 807.648 185.403C807.886 184.45 807.886 183.497 808.123 182.544V182.544L807.648 184.45C810.499 172.298 813.588 160.385 816.439 148.234C818.578 140.133 820.479 131.555 822.379 123.454C822.855 123.216 823.33 123.692 823.805 123.454C828.795 124.407 833.547 125.837 838.299 126.79V126.79Z" fill="white"/>
<path d="M887.482 124.646C887.482 125.36 887.007 125.599 886.294 125.599C885.819 125.36 885.343 125.599 884.868 125.122C885.343 124.646 885.343 123.931 886.056 123.692C886.769 123.931 887.244 124.407 887.482 124.646V124.646Z" fill="white"/>
<path d="M880.354 126.075C881.067 126.075 881.779 125.36 882.492 126.075C882.017 126.79 881.542 127.028 880.829 127.505C879.879 127.028 878.453 127.028 878.691 125.599C878.928 124.884 879.641 125.837 880.354 126.075V126.075Z" fill="white"/>
<path d="M885.819 127.505C885.819 127.981 886.531 128.696 885.581 128.934C884.868 129.173 884.631 129.649 883.918 129.649C883.443 128.934 882.492 128.696 882.017 128.696C882.492 127.266 883.443 128.696 884.155 127.743C884.393 127.505 885.343 126.552 885.819 127.505V127.505Z" fill="white"/>
<path d="M878.453 128.22C878.453 128.458 878.691 128.696 878.928 128.934C878.453 129.173 877.978 130.364 877.503 129.411C877.265 129.411 877.027 129.887 876.552 129.411C876.315 129.173 876.552 128.934 876.315 128.696C876.315 128.22 876.315 127.981 876.79 127.743C877.027 128.458 877.74 128.458 878.453 128.22V128.22Z" fill="white"/>
<path d="M887.957 130.126C887.957 130.602 887.957 131.555 887.482 131.793C887.007 131.793 886.769 131.317 886.294 131.317L885.581 130.364C886.294 129.887 887.007 129.411 887.957 129.411V130.126V130.126Z" fill="white"/>
<path d="M882.967 131.079C882.73 131.793 881.779 131.793 881.542 132.508C880.829 132.27 880.354 132.032 879.641 132.032L878.928 131.317C879.166 131.079 879.403 130.602 879.879 130.602C880.591 131.555 882.255 129.411 882.967 131.079V131.079Z" fill="white"/>
<path d="M877.74 132.985C878.215 132.508 878.691 133.461 879.166 133.7L877.503 134.414C876.552 134.176 875.602 133.7 875.364 132.747C875.364 132.508 875.364 132.27 875.602 132.27C876.315 132.508 876.79 133.461 877.74 132.985V132.985Z" fill="white"/>
<path d="M886.056 133.223C885.106 133.7 884.868 134.653 883.918 134.653C883.443 133.938 882.492 133.938 882.017 133.223C882.255 133.223 882.73 133.461 882.967 132.985C883.68 132.985 884.393 133.223 884.868 132.747C885.343 132.747 885.581 133.223 886.056 133.223V133.223Z" fill="white"/>
<path d="M888.907 134.176C889.145 134.891 888.67 135.606 888.432 136.082C887.482 136.082 886.294 136.321 885.343 135.844C885.343 134.414 887.007 134.414 887.957 133.938C888.432 133.938 888.67 133.938 888.907 134.176V134.176Z" fill="white"/>
<path d="M882.73 135.606C882.255 136.082 881.542 136.797 880.829 136.797C880.116 136.321 878.453 136.559 878.691 135.129C879.641 134.653 880.829 134.653 881.542 134.891L882.73 135.606V135.606Z" fill="white"/>
<path d="M876.552 136.321C876.79 136.559 877.027 137.035 876.79 137.274V137.274C876.077 137.75 874.889 137.274 874.176 136.797C873.939 136.559 873.463 136.321 873.463 135.844C874.414 135.129 875.364 136.559 876.552 136.321V136.321Z" fill="white"/>
<path d="M885.343 137.75C885.343 137.988 885.581 138.227 885.819 138.227C884.868 138.465 884.631 139.656 883.443 139.656L883.205 139.894L881.542 138.703C882.255 137.988 883.205 137.75 884.155 137.75C884.631 137.988 885.106 137.75 885.343 137.75V137.75Z" fill="white"/>
<path d="M880.354 139.656C879.403 139.418 878.691 140.848 877.74 140.133C877.265 139.656 876.315 139.418 876.315 138.703C877.265 137.274 878.453 138.703 879.641 138.703C879.879 138.941 880.116 139.418 880.354 139.656V139.656Z" fill="white"/>
<path d="M874.651 139.418C875.127 139.656 874.889 140.133 874.651 140.371C873.701 140.371 872.751 140.371 872.275 139.418C872.275 139.18 872.275 138.941 872.513 138.941C873.463 138.941 873.939 139.418 874.651 139.418V139.418Z" fill="white"/>
<path d="M888.195 139.894C887.482 140.371 887.719 141.324 887.007 141.801C886.056 142.039 885.343 141.324 884.631 141.086C885.581 140.133 887.007 138.941 888.195 139.894V139.894Z" fill="white"/>
<path d="M872.751 142.277C872.275 142.515 871.8 142.277 871.563 142.277C871.325 142.039 871.087 141.801 871.325 141.562C871.563 141.324 872.988 141.324 872.751 142.277V142.277Z" fill="white"/>
<path d="M881.304 142.039C882.017 142.277 883.443 141.562 883.443 142.754C883.68 142.754 883.443 143.23 883.68 143.468C883.205 143.707 882.492 144.183 882.017 143.707V143.707C881.067 143.707 879.879 143.468 879.641 142.277C879.641 142.039 879.879 142.039 880.116 142.039C880.116 141.801 880.116 141.324 880.354 141.324C880.591 141.324 881.067 141.562 881.304 142.039V142.039Z" fill="white"/>
<path d="M877.027 141.562C878.215 141.324 877.503 142.754 878.215 142.992C877.503 142.992 876.79 144.421 876.077 143.23C875.839 142.277 874.176 142.515 874.889 141.324C875.602 141.801 876.315 141.562 877.027 141.562V141.562Z" fill="white"/>
<path d="M874.889 145.136C874.176 144.898 873.226 145.136 872.988 144.183C872.988 143.945 873.226 143.707 873.463 143.707C873.701 144.421 876.077 143.707 874.889 145.136V145.136Z" fill="white"/>
<path d="M871.325 144.898C871.325 145.851 870.612 144.898 870.137 145.136C869.899 144.898 869.899 144.66 870.137 144.421C870.612 144.421 871.325 144.421 871.325 144.898V144.898Z" fill="white"/>
<path d="M880.116 145.136C880.591 145.136 881.542 144.66 881.542 145.613V145.851C880.591 145.851 879.641 147.042 878.691 146.089C878.453 145.851 877.978 145.375 878.453 144.898C878.928 144.66 879.166 144.66 879.641 144.898L880.116 145.136V145.136Z" fill="white"/>
<path d="M873.939 146.566C873.463 147.519 872.751 146.804 872.038 146.804C871.8 146.566 871.325 146.089 872.038 145.851C872.513 146.089 873.463 145.851 873.939 146.566V146.566Z" fill="white"/>
<path d="M877.74 147.042C877.74 147.281 877.74 147.519 877.503 147.757C876.552 147.757 876.077 147.281 875.364 147.042C875.127 146.804 875.364 146.328 875.602 146.328C876.552 145.851 876.79 147.042 877.74 147.042V147.042Z" fill="white"/>
<path d="M870.612 148.472C870.612 148.949 869.899 148.71 869.662 148.949C869.424 148.949 869.187 148.949 868.949 148.71C868.949 148.472 869.187 148.234 869.424 147.995C869.899 147.995 870.612 147.995 870.612 148.472V148.472Z" fill="white"/>
<path d="M876.315 149.902L876.077 150.14C880.591 156.096 884.393 162.053 888.432 168.01C887.482 168.01 886.056 168.248 885.106 167.771C881.067 162.053 877.027 156.811 872.751 151.093C872.751 150.616 872.275 150.14 872.988 149.902C873.939 149.902 874.651 149.425 875.364 149.663C875.602 149.425 875.839 149.902 876.315 149.902V149.902Z" fill="white"/>
<path d="M606.593 40.7765C615.146 40.7766 622.274 42.9207 628.214 47.6857C628.22 47.6802 628.455 47.4484 628.69 47.4484C630.115 46.4953 631.778 45.3038 634.154 44.589C637.956 43.3977 640.332 43.8742 640.332 43.8742C640.329 43.9078 639.862 48.4505 641.045 61.7433C642.23 72.9113 643.651 79.5773 643.658 79.6134H632.729C625.601 60.3141 617.76 51.9748 604.454 51.9748C592.812 51.9748 584.971 58.8847 584.971 69.8449C584.971 80.8049 591.624 87.238 609.206 93.6711C632.966 102.487 644.846 114.877 644.846 134.891C644.846 158.241 627.264 175.396 601.128 175.634C589.01 175.634 581.645 173.252 573.804 168.01C573.8 168.01 573.564 168.012 573.328 168.248C572.14 169.201 570.002 170.631 567.863 171.346C562.874 173.013 559.072 172.775 559.072 172.775L563.111 132.27C563.111 132.508 564.537 132.508 565.963 132.508C570.953 132.508 573.091 133.938 574.279 138.942C577.843 154.19 585.684 164.436 600.178 164.436C613.008 164.436 621.562 156.811 621.562 144.898C621.561 135.129 616.334 128.696 596.138 120.595C574.517 112.017 563.111 98.9126 563.111 78.8986C563.112 55.5488 580.219 40.7765 606.593 40.7765ZM698.307 41.0148C706.86 41.0149 713.988 42.9206 719.928 47.6857C719.936 47.6774 720.17 47.4484 720.403 47.4484C721.829 46.4953 723.492 45.3038 725.868 44.589C729.419 43.402 731.791 43.8708 731.808 43.8742C731.804 43.9115 731.338 48.456 732.521 61.7433C733.705 72.9032 735.124 79.5677 735.134 79.6134H724.204C717.076 60.3142 709.235 52.213 695.93 52.213C684.288 52.2132 676.447 58.8849 676.447 69.8449C676.447 80.805 683.1 87.2379 700.683 93.6711C724.442 102.487 736.322 114.877 736.322 134.891C736.322 158.241 718.74 175.396 692.604 175.634C680.486 175.634 673.12 173.252 665.279 168.01C665.267 168.01 665.036 168.016 664.805 168.248C663.617 169.201 661.478 170.63 659.34 171.345C654.372 173.005 650.582 172.777 650.549 172.775L654.588 132.27C654.826 132.508 656.014 132.508 657.677 132.508C662.666 132.508 664.804 133.938 665.992 138.942C669.556 154.19 677.397 164.436 691.891 164.436C704.721 164.436 713.276 156.811 713.276 144.898C713.275 135.129 708.047 128.696 687.852 120.595C666.23 112.017 654.825 98.9127 654.825 78.8986C654.825 55.5488 671.933 41.0148 698.307 41.0148ZM165.845 54.1193L151.826 55.549L172.973 90.3351L192.693 60.7912C195.069 56.9789 194.594 55.3107 191.03 54.8341L180.338 54.1193V43.8742H226.67V54.1193L212.414 55.549L180.101 101.058C180.173 101.168 210.994 147.764 215.028 153.714C219.543 160.385 222.632 162.768 227.621 162.768H230.71L229.997 173.013H170.834L171.547 162.768L185.091 161.576L161.806 125.837C161.772 125.886 144.22 151.098 140.897 156.097C137.808 160.624 138.283 162.053 143.035 162.053L156.341 162.768L155.628 173.013H105.97L106.92 162.768L121.413 161.576L154.915 114.639C154.915 114.639 126.166 70.0826 120.939 61.7433C117.375 56.0252 113.097 54.1193 105.494 54.1193V43.8742H165.845V54.1193ZM382.774 44.1125C419.601 44.1125 442.648 51.7366 442.649 76.2775C442.649 92.956 425.303 104.631 409.859 108.205C409.39 108.205 409.385 108.439 409.385 108.444C423.403 111.541 433.62 120.833 436.709 135.367C437.596 139.457 437.82 141.158 438.371 145.322C438.559 146.739 438.784 148.44 439.085 150.616C440.511 160.147 442.174 162.291 449.539 162.291L448.826 172.536C448.821 172.537 446.686 172.775 444.787 172.775C443.362 173.013 441.936 173.013 440.035 173.013L439.12 173.009C420.122 172.846 414.081 167.496 410.572 150.14C409.956 147.154 409.518 144.524 409.104 142.038C408.559 138.772 408.056 135.755 407.246 132.508C404.395 119.642 396.792 114.639 381.586 114.639H380.873V150.378C380.873 162.291 382.061 162.768 396.792 162.768H397.98L397.267 173.013H338.58L339.293 162.768L352.36 161.576V72.9425C352.36 60.7911 347.608 54.3576 338.342 54.3576H337.867V44.1125H382.774ZM548.856 75.0871H539.352C537.926 73.4192 536.501 71.036 534.6 66.5089C532.461 61.5057 531.986 60.3142 531.274 57.6935C530.798 56.2639 530.086 55.549 526.522 55.549H496.347V100.343H510.84C522.958 100.343 526.046 97.9595 527.709 89.8586V88.9054H536.501V124.646H529.135C529.135 124.645 529.127 124.63 528.898 124.169C528.422 123.216 527.234 121.548 525.333 118.927C522.482 114.877 519.393 113.447 512.503 113.447L496.347 113.686V158.479C496.347 160.385 496.822 161.338 498.96 161.338H515.116C529.135 161.338 534.124 158.955 537.926 150.14C540.064 144.66 541.49 141.324 542.441 138.942C543.153 136.797 545.055 135.844 547.431 135.844C549.569 135.844 551.708 136.082 553.846 136.559L550.044 173.013H453.816L454.528 162.768L467.597 161.576V73.6574C467.597 58.4086 462.132 54.3576 450.965 54.3576H450.489V44.1125H545.292L548.856 75.0871ZM98.129 74.8488H88.6251C87.1995 73.4192 85.774 70.7977 83.8732 66.2707C81.9724 61.5054 81.2588 59.8378 80.546 57.2169C80.0708 56.0256 78.8833 55.549 75.3195 55.549H45.6193V100.343H60.1124C72.23 100.343 75.3193 97.9595 76.9825 89.8586V88.9054H85.7736V124.646H78.4083C78.4083 124.646 78.4076 124.646 78.17 124.169C77.6948 123.216 76.5073 121.548 74.6066 118.927C71.7555 114.877 68.6665 113.447 61.7765 113.447H45.6193V158.24C45.6193 160.146 46.0945 161.1 48.2325 161.1H64.3898C78.4081 161.1 83.3977 158.717 87.1993 149.902C89.3377 144.421 90.7636 141.086 91.714 138.703C92.4268 136.559 94.3273 135.606 96.7032 135.606C98.8416 135.606 100.98 135.844 103.118 136.32L99.3165 172.775H2.13879L2.85168 162.529L17.1075 161.338V73.4191C17.1075 58.1704 11.6426 54.1194 0.475708 54.1193H0.00012207V43.8742H94.5646L98.129 74.8488ZM277.992 43.8742C314.107 43.8742 337.867 52.2132 337.867 79.3752C337.867 110.111 308.643 125.122 277.279 117.974C276.804 117.736 276.567 117.497 276.567 117.497V148.234C276.567 161.338 277.754 162.529 295.099 162.529H298.663L297.95 172.775H235.224L235.937 162.529L247.817 161.338V72.466C247.817 60.0762 243.065 54.1193 232.61 54.1193L232.848 43.8742H277.992ZM276.329 106.776C276.335 106.781 276.575 107.014 277.279 107.014C296.05 108.682 309.117 99.6277 309.117 80.8048C309.117 61.7438 296.049 54.1193 276.804 54.1193H276.329V106.776ZM380.873 103.678H381.348C399.643 103.44 412.711 96.7683 412.711 77.7072C412.711 61.5055 401.306 54.1193 381.823 54.1193H380.873V103.678Z" fill="black"/>
</svg>
